<svg width="198" height="59" viewBox="0 0 198 59" fill="none" xmlns="http://www.w3.org/2000/svg">
<circle cx="29.5" cy="29.5" r="29.5" fill="#FCFE52"/>
<path d="M46.4707 40.1175V29.9111" stroke="black" stroke-width="0.949425"/>
<path d="M29.3813 49.137V40.1174" stroke="black" stroke-width="0.949425"/>
<path d="M12.2915 30.1483V19.7046" stroke="black" stroke-width="0.949425"/>
<path d="M29.144 10.6853L29.3814 19.4675" stroke="black" stroke-width="0.949425"/>
<path d="M45.9961 19.7047L29.1438 10.4478L12.5289 19.7047L46.2335 40.1173L29.3812 49.1368L12.2915 40.1173L45.9961 19.7047Z" stroke="black" stroke-width="0.949425"/>
<path d="M12.2915 29.911L29.3812 19.4673L46.7082 29.911L29.3812 40.3546L12.2915 29.911Z" stroke="black" stroke-width="0.949425"/>
<path d="M86.0812 24.0208C86.0113 23.1478 85.684 22.4668 85.0991 21.978C84.5229 21.4891 83.6456 21.2446 82.467 21.2446C81.7162 21.2446 81.1008 21.3363 80.6206 21.5196C80.1492 21.6942 79.8 21.9343 79.5731 22.2399C79.3461 22.5454 79.2282 22.8946 79.2195 23.2874C79.202 23.6104 79.2588 23.9029 79.3897 24.1648C79.5294 24.418 79.7477 24.6493 80.0445 24.8588C80.3413 25.0596 80.721 25.2429 81.1837 25.4088C81.6464 25.5747 82.1964 25.7231 82.8337 25.854L85.0336 26.3254C86.5177 26.6397 87.7879 27.0544 88.8442 27.5694C89.9005 28.0845 90.7648 28.6912 91.437 29.3896C92.1092 30.0793 92.6024 30.8562 92.9167 31.7205C93.2397 32.5848 93.4056 33.5276 93.4143 34.549C93.4056 36.3124 92.9647 37.8052 92.0917 39.0274C91.2187 40.2496 89.9703 41.1793 88.3466 41.8166C86.7316 42.4539 84.7892 42.7725 82.5194 42.7725C80.1885 42.7725 78.1545 42.4277 76.4172 41.738C74.6887 41.0484 73.3443 39.9877 72.384 38.556C71.4325 37.1156 70.9523 35.2736 70.9436 33.03H77.8576C77.9013 33.8506 78.1064 34.5403 78.4731 35.099C78.8398 35.6577 79.3548 36.0811 80.0183 36.3692C80.6905 36.6572 81.4893 36.8013 82.4146 36.8013C83.1916 36.8013 83.842 36.7053 84.3658 36.5132C84.8896 36.3211 85.2868 36.0549 85.5574 35.7144C85.828 35.374 85.9677 34.9855 85.9764 34.549C85.9677 34.1387 85.8324 33.7808 85.5705 33.4752C85.3173 33.1609 84.8983 32.8816 84.3134 32.6371C83.7285 32.384 82.9384 32.1483 81.9432 31.93L79.2719 31.3538C76.8974 30.8388 75.0248 29.9789 73.6542 28.7742C72.2923 27.5607 71.6158 25.9064 71.6245 23.8112C71.6158 22.1089 72.0697 20.6205 72.9864 19.3459C73.9117 18.0626 75.1907 17.063 76.8232 16.3472C78.4644 15.6313 80.3457 15.2734 82.467 15.2734C84.632 15.2734 86.5046 15.6357 88.0847 16.3603C89.6648 17.0849 90.8826 18.1063 91.7381 19.4245C92.6024 20.734 93.0389 22.266 93.0476 24.0208H86.0812ZM105.189 42.8249C103.041 42.8249 101.191 42.4146 99.6367 41.594C98.0915 40.7647 96.8999 39.5774 96.0618 38.0322C95.2325 36.4783 94.8178 34.6188 94.8178 32.4538C94.8178 30.3761 95.2368 28.5603 96.0749 27.0064C96.913 25.4525 98.0959 24.2434 99.6236 23.3791C101.151 22.5148 102.954 22.0827 105.032 22.0827C106.551 22.0827 107.926 22.3184 109.157 22.7898C110.388 23.2613 111.439 23.9465 112.312 24.8457C113.185 25.7362 113.858 26.8187 114.329 28.0932C114.8 29.3678 115.036 30.8039 115.036 32.4014V34.0776H97.0701V30.0967H108.384C108.375 29.5206 108.227 29.0142 107.939 28.5777C107.659 28.1325 107.28 27.7877 106.8 27.5433C106.328 27.2901 105.791 27.1635 105.189 27.1635C104.604 27.1635 104.067 27.2901 103.578 27.5433C103.089 27.7877 102.697 28.1282 102.4 28.5647C102.112 29.0011 101.959 29.5118 101.941 30.0967V34.3918C101.941 35.0379 102.077 35.614 102.347 36.1204C102.618 36.6267 103.006 37.0239 103.513 37.312C104.019 37.6001 104.63 37.7441 105.346 37.7441C105.844 37.7441 106.298 37.6743 106.708 37.5346C107.127 37.3949 107.485 37.1941 107.782 36.9322C108.078 36.6616 108.297 36.3386 108.436 35.9632H115.036C114.809 37.36 114.272 38.5735 113.426 39.6036C112.579 40.625 111.457 41.4194 110.06 41.9868C108.672 42.5456 107.048 42.8249 105.189 42.8249ZM117.248 42.4583V22.3446H124.267V26.1683H124.477C124.843 24.7541 125.424 23.7196 126.218 23.0648C127.021 22.4101 127.96 22.0827 129.034 22.0827C129.348 22.0827 129.658 22.1089 129.963 22.1613C130.278 22.2049 130.579 22.2704 130.867 22.3577V28.5254C130.509 28.4032 130.068 28.3115 129.544 28.2504C129.021 28.1893 128.571 28.1587 128.196 28.1587C127.488 28.1587 126.851 28.3202 126.284 28.6432C125.725 28.9575 125.284 29.4027 124.961 29.9789C124.638 30.5463 124.477 31.2142 124.477 31.9824V42.4583H117.248ZM153.383 22.3446L146.626 42.4583H138.245L131.488 22.3446H139.083L142.33 35.6489H142.54L145.788 22.3446H153.383ZM163.727 42.8249C161.579 42.8249 159.728 42.4146 158.174 41.594C156.629 40.7647 155.437 39.5774 154.599 38.0322C153.77 36.4783 153.355 34.6188 153.355 32.4538C153.355 30.3761 153.774 28.5603 154.613 27.0064C155.451 25.4525 156.633 24.2434 158.161 23.3791C159.689 22.5148 161.492 22.0827 163.569 22.0827C165.088 22.0827 166.463 22.3184 167.694 22.7898C168.925 23.2613 169.977 23.9465 170.85 24.8457C171.723 25.7362 172.395 26.8187 172.867 28.0932C173.338 29.3678 173.574 30.8039 173.574 32.4014V34.0776H155.608V30.0967H166.922C166.913 29.5206 166.765 29.0142 166.476 28.5777C166.197 28.1325 165.817 27.7877 165.337 27.5433C164.866 27.2901 164.329 27.1635 163.727 27.1635C163.142 27.1635 162.605 27.2901 162.116 27.5433C161.627 27.7877 161.234 28.1282 160.937 28.5647C160.649 29.0011 160.496 29.5118 160.479 30.0967V34.3918C160.479 35.0379 160.614 35.614 160.885 36.1204C161.156 36.6267 161.544 37.0239 162.05 37.312C162.557 37.6001 163.168 37.7441 163.884 37.7441C164.381 37.7441 164.835 37.6743 165.246 37.5346C165.665 37.3949 166.022 37.1941 166.319 36.9322C166.616 36.6616 166.834 36.3386 166.974 35.9632H173.574C173.347 37.36 172.81 38.5735 171.963 39.6036C171.116 40.625 169.995 41.4194 168.598 41.9868C167.21 42.5456 165.586 42.8249 163.727 42.8249ZM185.476 42.8249C183.294 42.8249 181.425 42.3928 179.871 41.5285C178.318 40.6555 177.126 39.4421 176.297 37.8882C175.467 36.3255 175.053 34.5141 175.053 32.4538C175.053 30.3936 175.467 28.5865 176.297 27.0326C177.126 25.4699 178.318 24.2565 179.871 23.3922C181.425 22.5192 183.294 22.0827 185.476 22.0827C187.659 22.0827 189.527 22.5192 191.081 23.3922C192.635 24.2565 193.826 25.4699 194.656 27.0326C195.485 28.5865 195.9 30.3936 195.9 32.4538C195.9 34.5141 195.485 36.3255 194.656 37.8882C193.826 39.4421 192.635 40.6555 191.081 41.5285C189.527 42.3928 187.659 42.8249 185.476 42.8249ZM185.528 37.4822C186.14 37.4822 186.668 37.2771 187.113 36.8668C187.558 36.4565 187.903 35.8716 188.147 35.1121C188.392 34.3526 188.514 33.449 188.514 32.4014C188.514 31.3451 188.392 30.4416 188.147 29.6908C187.903 28.9313 187.558 28.3464 187.113 27.9361C186.668 27.5258 186.14 27.3206 185.528 27.3206C184.882 27.3206 184.328 27.5258 183.865 27.9361C183.403 28.3464 183.049 28.9313 182.805 29.6908C182.56 30.4416 182.438 31.3451 182.438 32.4014C182.438 33.449 182.56 34.3526 182.805 35.1121C183.049 35.8716 183.403 36.4565 183.865 36.8668C184.328 37.2771 184.882 37.4822 185.528 37.4822Z" fill="white"/>
</svg>
