<svg width="1483" height="1138" viewBox="0 0 1483 1138" fill="none" xmlns="http://www.w3.org/2000/svg">
<path opacity="0.04" d="M342.3 39.7472C294.455 29.5286 244.815 45.514 211.927 81.657L211.154 82.5151L72.1853 237.829L72.1763 237.839L-67.4285 392.582C-100.201 428.908 -111.176 479.89 -96.3196 526.443L-95.9633 527.542L-30.9424 725.549L-34.0701 726.576L-30.9415 725.549L-30.9382 725.562L33.2716 923.835C48.3447 970.38 87.0085 1005.38 134.753 1015.79L135.883 1016.03L339.873 1058.72L339.887 1058.72L543.7 1102.25C591.545 1112.47 641.184 1096.48 674.072 1060.34L674.846 1059.48L813.815 904.17L813.824 904.16L953.429 749.418C986.201 713.092 997.176 662.109 982.319 615.556L981.964 614.458L916.942 416.45L916.937 416.437L852.729 218.165C837.656 171.62 798.991 136.624 751.246 126.214L750.117 125.973L546.127 83.279L546.114 83.2761L342.3 39.7472Z" stroke="#EB5BE5" stroke-width="6.58471"/>
<path opacity="0.2" d="M802.5 917L673.567 1059.9C642.083 1094.8 593.221 1113.89 547.5 1103V1103" stroke="#EB5BE5" stroke-width="6.58471"/>
<path opacity="0.02" d="M266.835 -194.332C218.416 -204.673 168.183 -188.496 134.901 -151.92L134.118 -151.052L-86.3738 95.3739L-86.3782 95.3794L-307.878 340.899C-341.043 377.66 -352.15 429.252 -337.115 476.363L-336.755 477.474L-233.59 791.639L-233.588 791.645L-131.712 1106.23C-116.458 1153.33 -77.3313 1188.75 -29.0146 1199.28L-27.8717 1199.53L295.785 1267.27L295.791 1267.27L619.167 1336.33C667.586 1346.67 717.82 1330.49 751.102 1293.92L751.884 1293.05L972.377 1046.63L972.381 1046.62L1193.88 801.101C1227.05 764.34 1238.15 712.748 1223.12 665.637L1222.76 664.525L1119.59 350.36L1119.59 350.354L1017.71 35.7688C1002.46 -11.3331 963.334 -46.748 915.018 -57.2828L913.875 -57.5265L590.218 -125.265L590.212 -125.267L266.835 -194.332Z" stroke="#EB5BE5" stroke-width="3.29235"/>
<path opacity="0.2" d="M1119.5 351L1018.58 36.6074C1003.08 -11.6642 962.82 -47.8719 913.182 -58.1801L589.002 -125.5" stroke="#EB5BE5" stroke-width="3.29235"/>
</svg>
